PathFileType	4	(X/Y/Z)	C:\Users\WrightLab\Desktop\Jo\P1_boxCal16.trc
DataRate	CameraRate	NumFrames	NumMarkers	Units	OrigDataRate	OrigDataStartFrame	OrigNumFrames
100.00	100.00	      43	19	mm	100.00	717	      1146
Frame#	Time	Headset_Front			Headset_Back			Headset_Left			Headset_Right			Left_Shoulder			Right_Shoulder			Sternum			C7			Left Elbow			Right Elbow			Left Wrist			Right Wrist			Left ASIS			Right ASIS			S2			Left Knee			Right Knee			Left Ankle			Right Ankle			
		X1	Y1	Z1	X2	Y2	Z2	X3	Y3	Z3	X4	Y4	Z4	X5	Y5	Z5	X6	Y6	Z6	X7	Y7	Z7	X8	Y8	Z8	X9	Y9	Z9	X10	Y10	Z10	X11	Y11	Z11	X12	Y12	Z12	X13	Y13	Z13	X14	Y14	Z14	X15	Y15	Z15	X16	Y16	Z16	X17	Y17	Z17	X18	Y18	Z18	X19	Y19	Z19	

717	7.160	-389.00101	1065.00000	2377.64355	-967.90155	819.32629	2321.54736							-833.27777	506.88132	2414.83960	-485.18475	151.81232	2449.88354													-482.51694	506.41449	2412.09473																									
718	7.170	-388.69144	1065.04578	2378.32251	-968.10730	818.91400	2321.51270							-833.22266	506.76929	2414.87549	-485.22577	151.85516	2449.89160													-482.61349	506.31848	2412.08740																									
719	7.180	-387.95874	1065.13599	2378.99951	-968.34027	818.58667	2321.63965							-833.31287	506.58224	2414.80542	-485.21246	151.82555	2449.85278													-482.75757	506.49176	2411.76807																									
720	7.190	-387.75046	1065.04346	2380.02490	-968.60187	818.24927	2321.89258							-833.39978	506.42438	2414.72021	-485.24945	151.79462	2449.84131													-482.69696	506.53180	2411.50635																									
721	7.200	-387.63599	1065.15967	2381.14185	-969.04169	817.73767	2322.42969							-833.46100	506.53690	2414.96753	-485.31818	151.81618	2449.85425													-482.79263	506.50885	2411.53491																									
722	7.210	-387.49472	1064.87720	2382.45361	-969.47491	817.27509	2323.30591							-833.48816	506.39798	2414.86255	-485.23666	151.87422	2449.84888													-482.85898	506.48834	2411.55225																									
723	7.220				-970.32263	816.76807	2324.19849							-833.48657	506.29688	2414.79468	-485.25662	151.84892	2449.85815													-482.92911	506.50757	2411.59106																									
724	7.230	-387.28622	1065.15210	2386.83496	-971.08099	816.46973	2324.77808							-833.50836	506.02469	2414.55933	-485.38354	151.96532	2449.97437													-483.04742	506.35556	2411.56470																									
725	7.240	-387.40225	1065.04773	2389.16187	-971.72382	816.20764	2325.06519							-833.55524	505.96964	2414.50659	-485.39282	151.94888	2449.98438													-483.30750	506.38370	2411.66211																									
726	7.250	-388.14075	1064.75928	2392.05103	-972.35284	816.11041	2325.45728							-833.52051	505.90155	2414.47925	-485.41888	151.98123	2449.99658													-483.81555	506.04123	2411.11133																									
727	7.260	-388.89435	1064.10193	2394.59595	-973.11987	815.80353	2326.46924							-833.64130	505.65588	2414.18506	-485.38757	152.00008	2449.98779													-484.53763	506.53967	2410.03735																									
728	7.270	-389.77640	1063.27771	2398.30737	-974.06250	815.79156	2328.05957							-833.83801	505.64047	2414.04932	-485.44644	152.01292	2450.02002													-485.01187	506.54456	2410.33618																									
729	7.280	-390.92148	1062.66394	2402.28369	-974.98132	815.74194	2329.42651							-833.84705	505.53888	2413.71948	-485.45187	152.01773	2450.03149													-485.12308	506.51703	2410.36865																									
730	7.290	-391.84470	1061.77515	2405.96460	-976.07587	816.03687	2330.41211							-834.06024	505.48700	2413.41382	-485.48669	152.11580	2449.90796													-485.77380	506.29071	2408.85791																									
731	7.300	-393.15433	1060.52026	2409.81982	-977.24426	816.21417	2331.14575							-834.32477	505.49701	2413.13745	-485.49115	152.20709	2449.93408													-485.87277	506.25882	2408.88306																									
732	7.310	-395.17386	1059.09302	2413.99438	-978.26978	816.40259	2332.07813							-834.42737	505.44336	2412.59521	-485.51700	152.16028	2449.90088													-486.21011	506.64673	2408.27856																									
733	7.320	-396.60684	1057.56555	2418.37256	-979.41736	816.68518	2333.40161							-834.62378	505.38501	2412.11182	-485.50961	152.30074	2449.73584													-486.19760	506.69455	2408.02637																									
734	7.330	-398.70471	1056.35925	2423.48438	-980.75555	816.96844	2335.01416							-834.90881	505.33496	2411.59717	-485.56787	152.27974	2449.71094													-486.21680	506.97934	2407.31665																									
735	7.340				-982.12701	817.64032	2336.51831							-835.19080	505.31812	2411.11304	-485.60095	152.32715	2449.71948													-486.25113	506.93610	2407.04297																									
736	7.350				-983.72772	818.35297	2337.98291							-835.29871	505.35538	2410.57495	-485.59656	152.41135	2449.64575													-486.40588	506.88144	2406.80859																									
737	7.360				-985.31061	818.91644	2339.27612							-835.59576	505.35947	2409.97144	-485.66241	152.39198	2449.62817													-486.49274	506.88937	2406.43091																									
738	7.370				-986.88922	819.63867	2340.73169							-835.51001	505.46219	2409.21606	-485.62549	152.41043	2449.60181													-486.88190	506.68869	2405.41382																									
739	7.380				-988.34711	820.32202	2341.48755							-835.63708	505.54083	2408.34131	-485.62903	152.47533	2449.59717													-487.63019	506.47894	2404.04663																									
740	7.390				-990.26678	821.01654	2342.16724							-835.83850	505.64603	2407.31250	-485.70181	152.38670	2449.54248													-488.29239	506.70850	2402.94263																									
741	7.400				-992.11267	821.82587	2343.24780							-835.90326	505.75479	2406.41284	-485.66583	152.51833	2449.54419													-488.33640	506.62927	2402.92163																									
742	7.410				-993.74390	822.90228	2344.66138							-836.06799	505.80350	2405.60767	-485.67542	152.52580	2449.53784													-488.46683	506.56430	2402.94360																									
743	7.420				-995.84363	823.52704	2344.71143							-836.12189	505.77856	2404.79272	-485.73297	152.52580	2449.54126													-488.51981	506.51089	2402.93896																									
744	7.430				-998.10913	824.45325	2345.87036							-836.35162	505.75928	2404.01563	-485.75253	152.46236	2449.49829													-488.63010	506.44699	2402.95313																									
745	7.440	-404.81741	840.06451	2309.97119	-999.68616	824.98999	2346.29663							-836.56311	505.73209	2403.29761	-485.69580	152.56125	2449.49780													-488.66766	506.63950	2402.57446																									
746	7.450	-400.36142	834.60864	2308.73486	-1002.05731	825.81396	2346.33911							-836.66870	505.69690	2402.58276	-485.71799	152.54974	2449.49438													-489.00394	507.02319	2402.21851																									
747	7.460	-393.25143	831.86316	2312.08081	-1004.12909	826.68634	2347.54468							-837.11084	505.74164	2401.94287	-485.70978	152.57539	2449.52246													-489.10577	506.96109	2402.22998																									
748	7.470	-385.96991	831.46521	2318.48438	-1006.09247	827.74274	2347.81421							-837.27002	505.87527	2401.28784	-485.84671	152.76790	2449.08057													-489.36777	506.79611	2401.30737																									
749	7.480	-378.25156	830.75885	2323.96436	-1008.44995	828.46545	2348.29053							-837.38092	506.05637	2400.24878	-485.84842	152.76799	2449.08130													-489.22656	507.06140	2402.22778																									
750	7.490	-370.56677	830.07745	2329.99219	-1010.48169	829.42291	2348.48315							-837.29602	506.05695	2398.78882	-485.91394	152.77193	2449.10962													-489.27643	506.96274	2402.49707																									
751	7.500	-362.85983	829.65857	2335.85718	-1012.56519	830.01611	2348.32178							-837.34021	506.16415	2397.79614	-485.88541	152.83784	2449.13086													-489.37637	507.01016	2402.56226																									
752	7.510	-355.52368	829.66309	2342.65918	-1015.11377	830.96497	2348.42578							-837.29462	506.07556	2396.77539	-486.07755	152.67508	2449.34619													-489.37817	506.98953	2402.55273																									
753	7.520	-348.02136	829.47626	2348.84985										-837.23541	506.08365	2395.95166	-486.17642	152.56670	2449.65845													-489.48578	506.98178	2402.81470																									
754	7.530	-341.13815	829.75598	2355.66162	-1018.84198	833.15753	2347.69531							-837.20032	505.86490	2394.92944	-486.09863	152.41550	2450.18799													-489.56012	507.00342	2403.04102																									
755	7.540	-334.40622	830.20581	2362.63599	-1020.70782	834.47729	2346.72754							-837.17163	505.68967	2394.23779	-486.10962	152.41386	2450.23071													-489.64740	506.92279	2403.30786																									
756	7.550	-328.25165	831.05981	2369.62964	-1022.05084	835.36292	2346.25244							-837.08942	505.52719	2393.48779	-486.25961	152.36371	2450.36401													-489.60953	506.88837	2403.45459																									
757	7.560	-322.42685	832.49390	2376.35205	-1024.26257	836.14801	2345.35669							-836.88110	505.28040	2392.56006	-486.24100	152.44943	2450.45703													-489.66629	506.97476	2403.55835																									
758	7.570	-317.14929	834.50854	2383.11304	-1025.96350	837.16217	2345.19946							-836.72095	505.15741	2391.70068	-486.28940	152.35646	2450.45215													-489.67722	506.92300	2403.53711																									
759	7.580	-312.29501	837.16174	2390.62402										-836.53796	505.22412	2390.83130	-486.34686	152.26413	2450.67847													-489.52109	507.05356	2403.50000																									
